<svg xmlns="http://www.w3.org/2000/svg" version="1.1" xmlns:xlink="http://www.w3.org/1999/xlink" xmlns:svgjs="http://svgjs.dev/svgjs" width="1000" height="1000" viewBox="0 0 1000 1000"><rect width="1000" height="1000" fill="#ffffff"></rect><g transform="matrix(0.7,0,0,0.7,149.5757636046955,356.4668820441785)"><svg viewBox="0 0 396 163" data-background-color="#003366" preserveAspectRatio="xMidYMid meet" height="411" width="1000" xmlns="http://www.w3.org/2000/svg" xmlns:xlink="http://www.w3.org/1999/xlink"><g id="tight-bounds" transform="matrix(1,0,0,1,0.23999663375326463,-0.1795334487350999)"><svg viewBox="0 0 395.52 163.35906547643043" height="163.35906547643043" width="395.52"><g><svg viewBox="0 0 395.52 163.35906547643043" height="163.35906547643043" width="395.52"><g transform="matrix(1,0,0,1,0,100.9624561051095)"><svg viewBox="0 0 395.52 62.39660937132093" height="62.39660937132093" width="395.52"><g><svg viewBox="0 0 395.52 62.39660937132093" height="62.39660937132093" width="395.52"><g><svg viewBox="0 0 395.52 62.39660937132093" height="62.39660937132093" width="395.52"><g transform="matrix(1,0,0,1,0,0)"><svg width="395.52" viewBox="1.850000023841858 -32.70000076293945 212.33999633789062 33.5" height="62.39660937132093" data-palette-color="#ffffff"><path d="M11 0.6Q8.7 0.6 6.75 0.18 4.8-0.25 3.53-0.75 2.25-1.25 2.25-1.3L2.25-1.3 1.85-2Q1.9-2.35 2.08-3.53 2.25-4.7 2.45-6.68 2.65-8.65 2.65-10.5L2.65-10.5 6.75-10.8Q6.75-8 7.25-6.5 7.75-5 8.93-4.38 10.1-3.75 12.3-3.75L12.3-3.75Q14.7-3.75 16.15-4.8 17.6-5.85 17.6-7.7L17.6-7.7Q17.6-9.35 16.07-10.5 14.55-11.65 11.35-13.2L11.35-13.2Q11.15-13.3 10.2-13.75L10.2-13.75Q6.45-15.55 4.35-17.55 2.25-19.55 2.25-22.75L2.25-22.75Q2.25-25.6 3.95-27.88 5.65-30.15 8.68-31.43 11.7-32.7 15.55-32.7L15.55-32.7Q17.75-32.7 19.63-32.4 21.5-32.1 22.63-31.78 23.75-31.45 24.05-31.35L24.05-31.35 24.4-30.7Q24.35-30.4 24.1-29.18 23.85-27.95 23.6-26.05 23.35-24.15 23.2-22.15L23.2-22.15 19.5-21.85 19.05-22.15Q19.05-22.3 19.1-22.78 19.15-23.25 19.15-23.95L19.15-23.95Q19.15-26.2 18.03-27.15 16.9-28.1 14.25-28.1L14.25-28.1Q12.1-28.1 10.73-27.08 9.35-26.05 9.35-24.45L9.35-24.45Q9.35-23.25 10.23-22.28 11.1-21.3 12.33-20.6 13.55-19.9 15.9-18.75L15.9-18.75Q18.7-17.4 20.53-16.3 22.35-15.2 23.6-13.5 24.85-11.8 24.85-9.45L24.85-9.45Q24.85-6.45 23.13-4.17 21.4-1.9 18.28-0.65 15.15 0.6 11 0.6L11 0.6ZM32.85-26.3Q32.85-27.85 32.5-28.38 32.15-28.9 31.05-28.9L31.05-28.9 29.55-28.85 29.3-29.25 29.65-32.2 36.35-32.1Q37.7-32.1 40.05-32.25 42.4-32.4 43.15-32.45L43.15-32.45 42.9-29.15Q41.05-28.8 40.4-28.23 39.75-27.65 39.7-26.25L39.7-26.25 39.2-6.6Q39.15-4.55 39.57-3.85 40-3.15 41.15-3.15L41.15-3.15Q41.9-3.15 42.42-3.2 42.95-3.25 43.1-3.3L43.1-3.3 43.35-3 42.9 0.15Q42.1 0.15 39.92 0.08 37.75 0 35.75 0L35.75 0Q33.5 0 31.52 0.05 29.55 0.1 28.85 0.15L28.85 0.15 29.3-3Q30.8-3.2 31.55-3.58 32.3-3.95 32.57-4.73 32.85-5.5 32.85-6.95L32.85-6.95 32.85-26.3ZM40.35-16.85L47.8-24.95Q49.15-26.4 49.15-27.45L49.15-27.45Q49.15-28.15 48.5-28.53 47.85-28.9 46.45-28.95L46.45-28.95 46.3-29.3 46.7-32.35Q47.4-32.3 49.5-32.2 51.6-32.1 52.9-32.1L52.9-32.1Q54.6-32.1 56.32-32.18 58.05-32.25 58.7-32.3L58.7-32.3 59-31.75 58.6-28.95Q57.1-28.35 55.72-27.15 54.35-25.95 52.15-23.35L52.15-23.35 46.75-17.35 53.5-7.25Q55.05-4.95 56.32-3.95 57.6-2.95 59.25-2.9L59.25-2.9 59.55-2.45 59.15 0.15Q58.4 0.25 56.17 0.5 53.95 0.75 53.4 0.75L53.4 0.75Q51.9 0.75 50.55-0.28 49.2-1.3 47.85-3.45L47.85-3.45 40.2-15.8 40.35-16.85ZM76.14 0.4L75.89 0 76.14-2.95Q77.84-3.1 78.62-3.28 79.39-3.45 79.69-3.78 80-4.1 80-4.75L80-4.75Q80-5.35 79.75-6.5L79.75-6.5 78.69-10.35Q76.09-10.45 74.09-10.45L74.09-10.45Q73.19-10.45 70.34-10.2L70.34-10.2 69.3-10.1 68.05-6.25Q67.75-5.15 67.75-4.7L67.75-4.7Q67.75-3.8 68.27-3.45 68.8-3.1 70.09-3.1L70.09-3.1 72.25-3.1 72.5-2.75 72.14 0.3Q71.44 0.25 69.14 0.13 66.84 0 64.84 0L64.84 0Q62.74 0 61.07 0.05 59.39 0.1 58.84 0.15L58.84 0.15 59.2-3.1Q60.34-3.3 61.09-4.05 61.84-4.8 62.49-6.5L62.49-6.5 71.44-31.85 79.09-32.65 79.64-32.4Q80.39-29.55 82.77-20.73 85.14-11.9 86.84-6.55L86.84-6.55Q87.39-4.75 88.25-4 89.09-3.25 90.8-3.1L90.8-3.1 91-2.75 90.64 0.15Q90 0.1 88.19 0.05 86.39 0 84.55 0L84.55 0Q81.89 0 79.37 0.18 76.84 0.35 76.14 0.4L76.14 0.4ZM70.5-14.3L74.09-14.3Q74.64-14.3 77.8-14.45L77.8-14.45 74.84-25.6 74.19-25.6 70.5-14.3ZM99.14 0.75Q98.39-2.05 95.97-10.95 93.54-19.85 91.69-25.85L91.69-25.85Q91.24-27.4 90.37-28.13 89.49-28.85 87.94-28.9L87.94-28.9 87.74-29.25 88.09-32.2Q88.79-32.2 90.64-32.15 92.49-32.1 94.39-32.1L94.39-32.1Q96.64-32.1 99.32-32.27 101.99-32.45 102.79-32.5L102.79-32.5 103.04-32.1 102.84-29.15Q101.09-28.95 100.29-28.78 99.49-28.6 99.22-28.25 98.94-27.9 98.94-27.2L98.94-27.2Q98.94-26.1 100.89-17.78 102.84-9.45 103.59-6.45L103.59-6.45 104.34-6.45Q105.54-9.5 108.14-17.9 110.74-26.3 110.74-27.4L110.74-27.4Q110.74-28.25 110.17-28.6 109.59-28.95 108.14-28.95L108.14-28.95 106.14-28.95 105.94-29.3 106.24-32.35Q106.94-32.3 109.32-32.2 111.69-32.1 113.64-32.1L113.64-32.1Q115.64-32.1 117.27-32.15 118.89-32.2 119.44-32.2L119.44-32.2 119.09-28.95Q117.84-28.75 117.34-28.28 116.84-27.8 116.34-26.35L116.34-26.35 107.09-0.25 99.14 0.75ZM146.79-9.9L147.14-9.45Q146.34-5.55 145.79-0.2L145.79-0.2 145.29 0.35Q135.74 0 129.74 0L129.74 0Q125.54 0 121.19 0.5L121.19 0.5 121.54-2.85Q123.64-3.15 124.39-4.05 125.14-4.95 125.14-7.15L125.14-7.15 125.19-26.2Q125.19-27.85 124.89-28.38 124.59-28.9 123.59-28.9L123.59-28.9Q122.94-28.9 122.04-28.8L122.04-28.8 121.74-29.25 122.14-32.25 123.14-32.25Q126.69-32.1 131.19-32.1L131.19-32.1Q142.34-32.1 146.39-32.7L146.39-32.7 146.79-32.15Q146.39-30.3 146.06-27.75 145.74-25.2 145.64-23.1L145.64-23.1 141.19-22.8 141.29-24.8Q141.29-26.3 140.87-26.93 140.44-27.55 139.17-27.78 137.89-28 134.89-28L134.89-28Q133.59-28 133.09-27.9 132.59-27.8 132.42-27.45 132.24-27.1 132.19-26.3L132.19-26.3 131.84-18.45 136.54-18.4Q137.59-18.4 139.17-18.53 140.74-18.65 142.34-18.85L142.34-18.85 142.74-18.4 142.04-14.15Q141.39-14.15 141.04-14.2L141.04-14.2Q137.54-14.3 135.49-14.3L135.49-14.3Q133.94-14.3 131.64-14L131.64-14 131.54-6.85Q131.54-5.45 131.77-4.85 131.99-4.25 132.62-4.05 133.24-3.85 134.79-3.85L134.79-3.85Q138.09-3.85 139.56-4.23 141.04-4.6 141.69-5.75 142.34-6.9 142.69-9.55L142.69-9.55 146.79-9.9ZM164.29 0.6Q159.89 0.6 156.66-1.33 153.44-3.25 151.71-6.8 149.99-10.35 149.99-15.2L149.99-15.2Q149.99-20.4 152.04-24.35 154.09-28.3 157.81-30.5 161.54-32.7 166.39-32.7L166.39-32.7Q170.89-32.7 174.16-30.83 177.44-28.95 179.16-25.43 180.89-21.9 180.89-17.05L180.89-17.05Q180.89-11.85 178.81-7.83 176.74-3.8 172.96-1.6 169.19 0.6 164.29 0.6L164.29 0.6ZM165.59-3.65Q169.19-3.65 171.21-6.48 173.24-9.3 173.24-14.45L173.24-14.45Q173.24-21 171.09-24.48 168.94-27.95 164.99-27.95L164.99-27.95Q161.44-27.95 159.46-25.13 157.49-22.3 157.49-17.15L157.49-17.15Q157.49-10.6 159.61-7.13 161.74-3.65 165.59-3.65L165.59-3.65ZM207.99 0.8Q204.74 0.8 202.53-3.85L202.53-3.85 198.19-12.65 194.63-12.65 194.53-7Q194.53-5.25 194.78-4.48 195.03-3.7 195.73-3.45 196.44-3.2 198.13-3.15L198.13-3.15 198.28-2.85 197.84 0.2Q196.94 0.15 194.69 0.1 192.44 0.05 190.53 0.05L190.53 0.05Q188.69 0.05 186.73 0.15 184.78 0.25 184.19 0.3L184.19 0.3 184.63-3Q186.73-3.25 187.46-4.1 188.19-4.95 188.19-7.1L188.19-7.1 188.19-26.45Q188.19-27.9 187.86-28.4 187.53-28.9 186.59-28.9L186.59-28.9Q186.03-28.9 185.53-28.85 185.03-28.8 184.88-28.8L184.88-28.8 184.59-29.2 185.03-32.2Q185.73-32.2 187.61-32.15 189.48-32.1 191.28-32.1L191.28-32.1Q193.28-32.1 195.61-32.18 197.94-32.25 198.84-32.3L198.84-32.3Q204.53-32.3 207.56-30.1 210.59-27.9 210.59-23.75L210.59-23.75Q210.59-20.8 208.84-18.35 207.09-15.9 203.84-14.25L203.84-14.25 208.24-7.1Q209.63-4.8 210.94-3.8 212.24-2.8 213.84-2.8L213.84-2.8 214.19-2.35 213.84 0.25 207.99 0.8ZM199.28-16.5Q200.94-17.2 202.28-18.57 203.63-19.95 203.63-22.85L203.63-22.85Q203.63-25.6 201.78-26.95 199.94-28.3 196.09-28.3L196.09-28.3Q195.59-28.3 195.41-28.1 195.23-27.9 195.19-27.2L195.19-27.2Q194.88-22.05 194.78-17L194.78-17 199.28-16.5Z" opacity="1" transform="matrix(1,0,0,1,0,0)" fill="#000000" class="undefined-text-0" data-fill-palette-color="primary" id="text-0"></path></svg></g></svg></g></svg></g></svg></g><g transform="matrix(1,0,0,1,150.6177153686472,0)"><svg viewBox="0 0 94.28456926270557 86.23211415116553" height="86.23211415116553" width="94.28456926270557"><g><svg xmlns="http://www.w3.org/2000/svg" xmlns:xlink="http://www.w3.org/1999/xlink" version="1.1" x="8" y="0" viewBox="14.162773132324219 9.465758323669434 72.38556671142578 79.73423767089844" style="enable-background:new 0 0 100 100;" xml:space="preserve" height="86.23211415116553" width="78.28456926270557" class="icon-icon-0" data-fill-palette-color="accent" id="icon-0"><path d="M76.1 89.2c-0.5 0-1 0-1.6-0.1l-51.4-7.6c-3.9-0.6-7-3.1-8.3-6.8-1.3-3.7-0.6-7.6 2-10.6L62.2 13c2.8-3.2 7.1-4.3 11.1-3 4 1.3 6.8 4.7 7.2 8.9l6 58.7c0.3 3.2-0.8 6.4-3.2 8.7C81.3 88.2 78.8 89.2 76.1 89.2zM70 11.5c-2.4 0-4.7 1-6.3 2.9L18.3 65.4c-2.1 2.4-2.7 5.6-1.6 8.6s3.6 5 6.7 5.5l51.4 7.6c2.6 0.4 5.2-0.4 7.1-2.3 1.9-1.8 2.9-4.4 2.6-7l-6-58.7c-0.3-3.4-2.6-6.2-5.8-7.2C71.8 11.6 70.9 11.5 70 11.5z" fill="#000000" data-fill-palette-color="accent"></path></svg></g></svg></g><g><rect width="150.6177153686472" height="5.6269906264065925" y="79.60512352475894" x="244.90228463135276" fill="#000000" data-fill-palette-color="accent"></rect><rect width="150.6177153686472" height="5.6269906264065925" y="79.60512352475894" x="0" fill="#000000" data-fill-palette-color="accent"></rect><rect width="150.6177153686472" height="5.6269906264065925" y="68.35114227194575" x="244.90228463135276" fill="#000000" data-fill-palette-color="accent"></rect><rect width="150.6177153686472" height="5.6269906264065925" y="68.35114227194575" x="0" fill="#000000" data-fill-palette-color="accent"></rect></g></svg></g><defs></defs></svg><rect width="395.52" height="163.35906547643043" fill="none" stroke="none" visibility="hidden"></rect></g></svg></g></svg>